<svg xmlns="http://www.w3.org/2000/svg" xmlns:xlink="http://www.w3.org/1999/xlink" version="1.1" width="256" height="256" viewBox="0 0 256 256" xml:space="preserve">

<defs>
</defs>
<g style="stroke: none; stroke-width: 0; stroke-dasharray: none; stroke-linecap: butt; stroke-linejoin: miter; stroke-miterlimit: 10; fill: none; fill-rule: nonzero; opacity: 1;" transform="translate(1.4065934065934016 1.4065934065934016) scale(2.81 2.81)" >
	<path d="M 77.333 81.333 H 12.667 c -2.209 0 -4 -1.791 -4 -4 c 0 -20.573 -3.374 -25.514 -7.449 -29.459 C 0.439 47.12 0 46.083 0 45 c 0 -1.083 0.439 -2.12 1.218 -2.874 c 4.075 -3.945 7.449 -8.886 7.449 -29.459 c 0 -2.209 1.791 -4 4 -4 h 64.667 c 2.209 0 4 1.791 4 4 c 0 20.573 3.374 25.514 7.449 29.459 C 89.561 42.88 90 43.917 90 45 c 0 1.083 -0.439 2.12 -1.218 2.874 c -4.075 3.945 -7.449 8.886 -7.449 29.459 C 81.333 79.542 79.542 81.333 77.333 81.333 z M 16.667 77.333 h 0.01 H 16.667 z M 16.621 73.333 h 56.758 C 73.744 57.851 76.307 50.36 80.586 45 c -4.279 -5.36 -6.842 -12.851 -7.207 -28.333 H 16.621 C 16.255 32.15 13.693 39.64 9.414 45 C 13.693 50.36 16.255 57.85 16.621 73.333 z" style="stroke: none; stroke-width: 1; stroke-dasharray: none; stroke-linecap: butt; stroke-linejoin: miter; stroke-miterlimit: 10; fill: rgb(121,82,179); fill-rule: nonzero; opacity: 1;" transform=" matrix(1 0 0 1 0 0) " stroke-linecap="round" />
	<path d="M 47.48 49 H 34.36 c -2.209 0 -4 -1.791 -4 -4 V 28.681 c 0 -2.209 1.791 -4 4 -4 H 47.48 c 6.705 0 12.159 5.455 12.159 12.16 S 54.186 49 47.48 49 z M 38.36 41 h 9.121 c 2.293 0 4.159 -1.866 4.159 -4.16 s -1.866 -4.16 -4.159 -4.16 H 38.36 V 41 z" style="stroke: none; stroke-width: 1; stroke-dasharray: none; stroke-linecap: butt; stroke-linejoin: miter; stroke-miterlimit: 10; fill: rgb(121,82,179); fill-rule: nonzero; opacity: 1;" transform=" matrix(1 0 0 1 0 0) " stroke-linecap="round" />
	<path d="M 47.48 65.319 H 34.36 c -2.209 0 -4 -1.791 -4 -4 V 45 c 0 -2.209 1.791 -4 4 -4 H 47.48 c 6.705 0 12.159 5.454 12.159 12.159 S 54.186 65.319 47.48 65.319 z M 38.36 57.319 h 9.121 c 2.293 0 4.159 -1.866 4.159 -4.16 c 0 -2.293 -1.866 -4.159 -4.159 -4.159 H 38.36 V 57.319 z" style="stroke: none; stroke-width: 1; stroke-dasharray: none; stroke-linecap: butt; stroke-linejoin: miter; stroke-miterlimit: 10; fill: rgb(121,82,179); fill-rule: nonzero; opacity: 1;" transform=" matrix(1 0 0 1 0 0) " stroke-linecap="round" />
</g>
</svg>